<svg width="20" height="20" viewBox="0 0 20 20" fill="none" xmlns="http://www.w3.org/2000/svg">
<path opacity="0.8" d="M6.5 2H13.185C13.393 1.99991 13.5987 2.04307 13.7891 2.12673C13.9795 2.2104 14.1504 2.33275 14.291 2.486L18.605 7.188C18.859 7.46464 18.9999 7.82647 19 8.202V18.5C19 18.8978 18.842 19.2794 18.5607 19.5607C18.2794 19.842 17.8978 20 17.5 20H6.5C6.10218 20 5.72064 19.842 5.43934 19.5607C5.15804 19.2794 5 18.8978 5 18.5V3.5C5 3.10218 5.15804 2.72064 5.43934 2.43934C5.72064 2.15804 6.10218 2 6.5 2V2Z" fill="#5E47D2"/>
<path d="M6.5 12.5C6.36739 12.5 6.24021 12.4473 6.14645 12.3536C6.05268 12.2598 6 12.1326 6 12C6 11.8674 6.05268 11.7402 6.14645 11.6464C6.24021 11.5527 6.36739 11.5 6.5 11.5H13.5C13.6326 11.5 13.7598 11.5527 13.8536 11.6464C13.9473 11.7402 14 11.8674 14 12C14 12.1326 13.9473 12.2598 13.8536 12.3536C13.7598 12.4473 13.6326 12.5 13.5 12.5H6.5ZM6.5 15C6.36739 15 6.24021 14.9473 6.14645 14.8536C6.05268 14.7598 6 14.6326 6 14.5C6 14.3674 6.05268 14.2402 6.14645 14.1464C6.24021 14.0527 6.36739 14 6.5 14H13.5C13.6326 14 13.7598 14.0527 13.8536 14.1464C13.9473 14.2402 14 14.3674 14 14.5C14 14.6326 13.9473 14.7598 13.8536 14.8536C13.7598 14.9473 13.6326 15 13.5 15H6.5Z" fill="black"/>
<path fill-rule="evenodd" clip-rule="evenodd" d="M11.185 1H4.5C4.10218 1 3.72064 1.15804 3.43934 1.43934C3.15804 1.72064 3 2.10218 3 2.5V17.5C3 17.8978 3.15804 18.2794 3.43934 18.5607C3.72064 18.842 4.10218 19 4.5 19H15.5C15.8978 19 16.2794 18.842 16.5607 18.5607C16.842 18.2794 17 17.8978 17 17.5V7.202C16.9999 6.82647 16.859 6.46464 16.605 6.188L12.291 1.486C12.1504 1.33275 11.9795 1.2104 11.7891 1.12673C11.5987 1.04307 11.393 0.99991 11.185 1V1ZM4 2.5C4 2.36739 4.05268 2.24022 4.14645 2.14645C4.24021 2.05268 4.36739 2 4.5 2H11.185C11.2544 1.99992 11.323 2.01429 11.3865 2.04218C11.4501 2.07007 11.5071 2.11087 11.554 2.162L15.868 6.864C15.9528 6.95616 15.9999 7.07678 16 7.202V17.5C16 17.6326 15.9473 17.7598 15.8536 17.8536C15.7598 17.9473 15.6326 18 15.5 18H4.5C4.36739 18 4.24021 17.9473 4.14645 17.8536C4.05268 17.7598 4 17.6326 4 17.5V2.5V2.5Z" fill="black"/>
<path d="M11.5 2.1001V6.8001H16.2" stroke="black" stroke-linecap="round" stroke-linejoin="round"/>
<path d="M8.13395 6.13301C8.27675 6.13738 8.41898 6.11303 8.55219 6.06141C8.68541 6.00978 8.8069 5.93192 8.90945 5.83246C9.01201 5.73299 9.09355 5.61394 9.14923 5.48237C9.20492 5.3508 9.23361 5.20938 9.23361 5.06651C9.23361 4.92364 9.20492 4.78223 9.14923 4.65066C9.09355 4.51908 9.01201 4.40003 8.90945 4.30057C8.8069 4.2011 8.68541 4.12325 8.55219 4.07162C8.41898 4.01999 8.27675 3.99564 8.13395 4.00001C7.85675 4.0085 7.59374 4.12458 7.40067 4.32367C7.20759 4.52275 7.09961 4.78918 7.09961 5.06651C7.09961 5.34384 7.20759 5.61028 7.40067 5.80936C7.59374 6.00844 7.85675 6.12452 8.13395 6.13301Z" fill="black"/>
<path fill-rule="evenodd" clip-rule="evenodd" d="M10.266 8.44377C10.266 7.30977 9.311 6.48877 8.133 6.48877C6.955 6.48877 6 7.30877 6 8.44377V8.97777C6.00026 9.07201 6.03789 9.16231 6.10462 9.22885C6.17136 9.2954 6.26176 9.33277 6.356 9.33277H9.911C10.0051 9.33251 10.0952 9.29502 10.1617 9.2285C10.2283 9.16198 10.2657 9.07184 10.266 8.97777V8.44377Z" fill="black"/>
</svg>
