<svg width="606" height="492" viewBox="0 0 606 492" fill="none" xmlns="http://www.w3.org/2000/svg">
<g clip-path="url(#clip0_509_1600)">
<path fill-rule="evenodd" clip-rule="evenodd" d="M330.248 35.4434C384.044 38.3944 422.327 80.6301 464.991 113.912C518.427 155.598 601.684 182.075 605.575 250.226C609.484 318.694 534.42 360.378 481.509 403.252C436.514 439.712 387.159 464.02 330.248 473.325C258.456 485.064 172.92 513.422 120.665 462.253C68.2841 410.961 90.5387 322.992 102.412 250.226C111.954 191.746 137.192 138.689 180.055 98.2816C221.259 59.4383 274.01 32.3584 330.248 35.4434Z" fill="#AAB6F4"/>
<path d="M344.133 435.372C352.39 440.971 361.798 469.274 361.798 469.274C361.798 469.274 332.348 471.216 324.094 465.62C322.13 464.289 320.444 462.58 319.133 460.59C317.822 458.6 316.912 456.368 316.454 454.021C315.995 451.675 315.999 449.26 316.463 446.915C316.927 444.57 317.844 442.341 319.16 440.354C320.476 438.367 322.166 436.663 324.133 435.337C326.101 434.011 328.307 433.091 330.626 432.628C332.945 432.166 335.332 432.17 337.649 432.64C339.967 433.111 342.17 434.039 344.133 435.372V435.372Z" fill="#F1F1F1"/>
<path d="M362.133 469.061L361.671 469.433C344.843 448.072 319.448 440.694 319.193 440.622L319.352 440.047C319.609 440.119 345.182 447.544 362.133 469.061Z" fill="white"/>
<path d="M388.292 424.08C387.765 437.989 361.633 469.752 361.633 469.752C361.633 469.752 337.993 436.051 338.517 422.147C338.771 415.468 341.636 409.165 346.482 404.624C351.329 400.083 357.76 397.676 364.36 397.932C370.961 398.189 377.19 401.088 381.678 405.991C386.166 410.895 388.545 417.402 388.292 424.08V424.08Z" fill="#F1F1F1"/>
<path d="M362.125 469.997L361.356 469.717C374.017 434.146 364.174 398.512 364.073 398.156L364.858 397.928C364.96 398.287 374.877 434.167 362.125 469.997Z" fill="white"/>
<path d="M294.459 344.94H70.4928C66.5027 344.935 62.6773 343.329 59.8559 340.474C57.0344 337.62 55.4474 333.749 55.4429 329.712V70.739C55.4474 66.7018 57.0344 62.8312 59.8559 59.9764C62.6773 57.1216 66.5027 55.5158 70.4928 55.5112H294.459C298.449 55.5158 302.274 57.1216 305.096 59.9764C307.917 62.8312 309.504 66.7018 309.509 70.739V329.712C309.504 333.749 307.917 337.62 305.096 340.474C302.274 343.329 298.449 344.935 294.459 344.94V344.94Z" fill="#E6E6E6"/>
<path d="M283.994 332.248H80.9584C77.4156 332.244 74.0191 330.818 71.514 328.283C69.0089 325.749 67.5997 322.312 67.5957 318.727V81.7234C67.5997 78.1387 69.0089 74.7021 71.514 72.1673C74.0191 69.6326 77.4156 68.2068 80.9584 68.2028H283.994C287.537 68.2068 290.933 69.6326 293.438 72.1673C295.943 74.7021 297.352 78.1387 297.356 81.7234V318.727C297.352 322.312 295.943 325.749 293.438 328.283C290.933 330.818 287.537 332.244 283.994 332.248V332.248Z" fill="white"/>
<path d="M275.916 101.935H173.491C173.052 101.936 172.617 101.849 172.211 101.679C171.805 101.51 171.437 101.261 171.126 100.947C170.815 100.633 170.569 100.26 170.4 99.8497C170.232 99.4394 170.146 98.9995 170.146 98.5552C170.146 98.1109 170.232 97.671 170.4 97.2606C170.569 96.8503 170.815 96.4775 171.126 96.1635C171.437 95.8496 171.805 95.6008 172.211 95.4312C172.617 95.2616 173.052 95.1747 173.491 95.1753H275.916C276.355 95.1747 276.79 95.2616 277.196 95.4312C277.602 95.6008 277.971 95.8496 278.282 96.1635C278.592 96.4775 278.839 96.8503 279.007 97.2606C279.175 97.671 279.262 98.1109 279.262 98.5552C279.262 98.9995 279.175 99.4394 279.007 99.8497C278.839 100.26 278.592 100.633 278.282 100.947C277.971 101.261 277.602 101.51 277.196 101.679C276.79 101.849 276.355 101.936 275.916 101.935V101.935Z" fill="#E4E4E4"/>
<path d="M275.916 115.291H173.491C172.605 115.291 171.755 114.935 171.129 114.301C170.502 113.667 170.15 112.807 170.15 111.911C170.15 111.014 170.502 110.154 171.129 109.521C171.755 108.887 172.605 108.531 173.491 108.531H275.916C276.802 108.531 277.652 108.887 278.279 109.521C278.905 110.154 279.257 111.014 279.257 111.911C279.257 112.807 278.905 113.667 278.279 114.301C277.652 114.935 276.802 115.291 275.916 115.291Z" fill="#E4E4E4"/>
<path d="M217.89 128.646H173.491C172.605 128.646 171.755 128.29 171.129 127.656C170.502 127.022 170.15 126.163 170.15 125.266C170.15 124.37 170.502 123.51 171.129 122.876C171.755 122.242 172.605 121.886 173.491 121.886H217.89C218.776 121.886 219.626 122.242 220.252 122.876C220.879 123.51 221.231 124.37 221.231 125.266C221.231 126.163 220.879 127.022 220.252 127.656C219.626 128.29 218.776 128.646 217.89 128.646Z" fill="#E4E4E4"/>
<path d="M263.565 182.588H101.867C101.428 182.589 100.993 182.502 100.587 182.332C100.182 182.163 99.8128 181.914 99.5021 181.6C99.1914 181.286 98.9449 180.913 98.7767 180.503C98.6085 180.092 98.522 179.652 98.522 179.208C98.522 178.764 98.6085 178.324 98.7767 177.914C98.9449 177.503 99.1914 177.13 99.5021 176.816C99.8128 176.503 100.182 176.254 100.587 176.084C100.993 175.915 101.428 175.828 101.867 175.828H263.565C264.004 175.828 264.439 175.915 264.845 176.084C265.251 176.254 265.62 176.503 265.93 176.816C266.241 177.13 266.487 177.503 266.656 177.914C266.824 178.324 266.91 178.764 266.91 179.208C266.91 179.652 266.824 180.092 266.656 180.503C266.487 180.913 266.241 181.286 265.93 181.6C265.62 181.914 265.251 182.163 264.845 182.332C264.439 182.502 264.004 182.589 263.565 182.588Z" fill="#E4E4E4"/>
<path d="M263.565 195.944H101.867C100.981 195.944 100.132 195.588 99.5051 194.954C98.8786 194.32 98.5266 193.46 98.5266 192.564C98.5266 191.667 98.8786 190.807 99.5051 190.174C100.132 189.54 100.981 189.184 101.867 189.184H263.565C264.451 189.184 265.301 189.54 265.927 190.174C266.554 190.807 266.906 191.667 266.906 192.564C266.906 193.46 266.554 194.32 265.927 194.954C265.301 195.588 264.451 195.944 263.565 195.944V195.944Z" fill="#E4E4E4"/>
<path d="M263.565 226.261H101.867C100.981 226.261 100.132 225.904 99.5052 225.271C98.8788 224.637 98.5269 223.777 98.5269 222.881C98.5269 221.984 98.8788 221.125 99.5052 220.491C100.132 219.857 100.981 219.501 101.867 219.501H263.565C264.451 219.501 265.301 219.857 265.927 220.491C266.554 221.125 266.906 221.984 266.906 222.881C266.906 223.777 266.554 224.637 265.927 225.271C265.301 225.904 264.451 226.261 263.565 226.261Z" fill="#E4E4E4"/>
<path d="M263.565 239.616H101.867C100.981 239.616 100.132 239.26 99.5051 238.626C98.8786 237.992 98.5266 237.133 98.5266 236.236C98.5266 235.34 98.8786 234.48 99.5051 233.846C100.132 233.212 100.981 232.856 101.867 232.856H263.565C264.451 232.856 265.301 233.212 265.927 233.846C266.554 234.48 266.906 235.34 266.906 236.236C266.906 237.133 266.554 237.992 265.927 238.626C265.301 239.26 264.451 239.616 263.565 239.616V239.616Z" fill="#E4E4E4"/>
<path d="M263.565 269.933H101.867C100.981 269.933 100.132 269.577 99.5052 268.943C98.8788 268.309 98.5269 267.449 98.5269 266.553C98.5269 265.657 98.8788 264.797 99.5052 264.163C100.132 263.529 100.981 263.173 101.867 263.173H263.565C264.451 263.173 265.301 263.529 265.927 264.163C266.554 264.797 266.906 265.657 266.906 266.553C266.906 267.449 266.554 268.309 265.927 268.943C265.301 269.577 264.451 269.933 263.565 269.933Z" fill="#E4E4E4"/>
<path d="M263.565 283.289H101.867C100.981 283.289 100.132 282.933 99.5051 282.299C98.8786 281.665 98.5266 280.805 98.5266 279.909C98.5266 279.012 98.8786 278.152 99.5051 277.519C100.132 276.885 100.981 276.529 101.867 276.529H263.565C264.451 276.529 265.301 276.885 265.927 277.519C266.554 278.152 266.906 279.012 266.906 279.909C266.906 280.805 266.554 281.665 265.927 282.299C265.301 282.933 264.451 283.289 263.565 283.289Z" fill="#E4E4E4"/>
<path d="M263.537 320.283H219.138C218.252 320.283 217.402 319.927 216.776 319.293C216.149 318.659 215.797 317.8 215.797 316.903C215.797 316.007 216.149 315.147 216.776 314.513C217.402 313.879 218.252 313.523 219.138 313.523H263.537C264.423 313.523 265.272 313.879 265.899 314.513C266.525 315.147 266.877 316.007 266.877 316.903C266.877 317.8 266.525 318.659 265.899 319.293C265.272 319.927 264.423 320.283 263.537 320.283Z" fill="#6C63FF"/>
<path d="M145.138 112.307C145.147 119.565 142.719 126.612 138.25 132.291C136.805 134.139 135.16 135.818 133.345 137.295C128.392 141.36 122.341 143.816 115.985 144.34C115.12 144.416 114.248 144.451 113.369 144.451C111.627 144.451 109.889 144.306 108.171 144.016C107.565 143.92 106.972 143.803 106.379 143.665C105.347 143.432 104.329 143.145 103.327 142.803C100.079 141.709 97.0276 140.089 94.2928 138.005C93.564 137.454 92.8624 136.868 92.1811 136.247C91.3478 135.5 90.5584 134.703 89.8169 133.862C89.6193 133.642 89.4217 133.414 89.231 133.187C85.9068 129.25 83.5719 124.559 82.4252 119.512C81.2785 114.466 81.3541 109.214 82.6453 104.204C83.9365 99.1932 86.4053 94.5726 89.8413 90.7354C93.2773 86.8981 97.5789 83.9578 102.38 82.1647C107.181 80.3717 112.339 79.779 117.415 80.4372C122.491 81.0953 127.334 82.9848 131.533 85.9448C135.732 88.9048 139.162 92.8476 141.531 97.4375C143.9 102.027 145.137 107.129 145.138 112.307L145.138 112.307Z" fill="#E4E4E4"/>
<path d="M112.263 123.277C119.453 123.277 125.282 117.379 125.282 110.104C125.282 102.829 119.453 96.9314 112.263 96.9314C105.073 96.9314 99.2444 102.829 99.2444 110.104C99.2444 117.379 105.073 123.277 112.263 123.277Z" fill="#9E616A"/>
<path d="M126.757 103.683C126.816 102.506 126.487 101.342 125.823 100.374L125.353 99.6984C123.657 96.3896 120.856 93.4116 118.806 91.2333C117.266 89.5996 115.727 88.8137 114.248 88.8895C113.172 88.9673 112.17 89.4729 111.461 90.2958C109.514 90.1755 107.575 90.6325 105.881 91.6108C104.187 92.5891 102.811 94.0462 101.923 95.8036C95.6896 99.1331 97.5495 108.963 97.5698 109.067L99.0757 111.624L99.2461 111.3C99.2461 111.293 99.2664 111.266 99.2936 111.21C99.5867 110.68 101.181 107.729 102.257 105.861C102.65 105.224 103.173 104.679 103.79 104.262C104.798 103.565 105.957 103.123 107.169 102.973L110.48 102.538L109.227 104.441H118.247L121.715 104.027C122.062 105.468 124.815 111.059 125.148 111.734L125.176 111.789L125.36 112.169L126.389 109.308C126.989 107.496 127.116 105.559 126.757 103.683V103.683Z" fill="#2F2E41"/>
<path d="M94.3884 138.074C94.947 137.33 97.8425 133.855 104.506 132.015L108.035 128.037L122.185 125.755L129.386 129.781L138.25 132.29C136.805 134.139 135.159 135.818 133.345 137.295C128.392 141.36 122.341 143.816 115.985 144.34C115.12 144.416 114.248 144.45 113.369 144.45C111.628 144.451 109.889 144.306 108.171 144.016C107.565 143.92 106.972 143.802 106.379 143.665C105.347 143.432 104.328 143.145 103.327 142.803C100.115 141.723 97.0971 140.127 94.3884 138.074C94.3543 138.053 94.327 138.026 94.293 138.005L94.3884 138.074Z" fill="#6C63FF"/>
<path d="M362.93 16.1228H2.02157C1.4856 16.1222 0.971743 15.9065 0.592752 15.523C0.213762 15.1396 0.000584283 14.6196 0 14.0773V2.04545C0.000584283 1.50314 0.213762 0.983219 0.592752 0.59975C0.971743 0.216282 1.4856 0.000591187 2.02157 0H362.93C363.466 0.000591187 363.98 0.216282 364.359 0.59975C364.738 0.983219 364.951 1.50314 364.952 2.04545V14.0773C364.951 14.6196 364.738 15.1396 364.359 15.523C363.98 15.9065 363.466 16.1222 362.93 16.1228Z" fill="#6C63FF"/>
<path d="M11.7319 10.3786C13.3171 10.3786 14.602 9.07843 14.602 7.47458C14.602 5.87073 13.3171 4.57056 11.7319 4.57056C10.1468 4.57056 8.86182 5.87073 8.86182 7.47458C8.86182 9.07843 10.1468 10.3786 11.7319 10.3786Z" fill="white"/>
<path d="M22.626 10.3786C24.2111 10.3786 25.4961 9.07843 25.4961 7.47458C25.4961 5.87073 24.2111 4.57056 22.626 4.57056C21.0409 4.57056 19.7559 5.87073 19.7559 7.47458C19.7559 9.07843 21.0409 10.3786 22.626 10.3786Z" fill="white"/>
<path d="M33.5205 10.3786C35.1056 10.3786 36.3906 9.07843 36.3906 7.47458C36.3906 5.87073 35.1056 4.57056 33.5205 4.57056C31.9354 4.57056 30.6504 5.87073 30.6504 7.47458C30.6504 9.07843 31.9354 10.3786 33.5205 10.3786Z" fill="white"/>
<path d="M352.257 5.4757H339.712C339.467 5.47358 339.232 5.37359 339.06 5.19749C338.887 5.02139 338.791 4.78346 338.791 4.53548C338.791 4.2875 338.887 4.04956 339.06 3.87346C339.232 3.69737 339.467 3.59737 339.712 3.59525H352.257C352.379 3.59419 352.501 3.61772 352.615 3.6645C352.728 3.71127 352.832 3.78036 352.919 3.86777C353.006 3.95519 353.075 4.05919 353.122 4.17379C353.17 4.2884 353.194 4.41132 353.194 4.53548C353.194 4.65963 353.17 4.78256 353.122 4.89716C353.075 5.01176 353.006 5.11577 352.919 5.20318C352.832 5.2906 352.728 5.35969 352.615 5.40646C352.501 5.45323 352.379 5.47677 352.257 5.4757V5.4757Z" fill="white"/>
<path d="M352.257 9.00158H339.712C339.465 9.00158 339.229 8.90252 339.055 8.7262C338.88 8.54987 338.782 8.31072 338.782 8.06135C338.782 7.81199 338.88 7.57284 339.055 7.39651C339.229 7.22019 339.465 7.12113 339.712 7.12113H352.257C352.379 7.12007 352.501 7.1436 352.615 7.19037C352.728 7.23715 352.832 7.30623 352.919 7.39365C353.006 7.48106 353.075 7.58507 353.122 7.69967C353.17 7.81428 353.194 7.9372 353.194 8.06135C353.194 8.18551 353.17 8.30844 353.122 8.42304C353.075 8.53764 353.006 8.64165 352.919 8.72906C352.832 8.81648 352.728 8.88557 352.615 8.93234C352.501 8.97911 352.379 9.00265 352.257 9.00158V9.00158Z" fill="white"/>
<path d="M352.257 12.5274H339.712C339.467 12.5254 339.232 12.4255 339.06 12.2494C338.887 12.0733 338.79 11.8353 338.79 11.5872C338.79 11.3392 338.887 11.1012 339.06 10.925C339.232 10.7489 339.467 10.649 339.712 10.647H352.257C352.502 10.649 352.736 10.7489 352.909 10.925C353.081 11.1012 353.178 11.3392 353.178 11.5872C353.178 11.8353 353.081 12.0733 352.909 12.2494C352.736 12.4255 352.502 12.5254 352.257 12.5274V12.5274Z" fill="white"/>
<path d="M451.341 323.558C450.763 322.922 450.331 322.166 450.073 321.343C449.816 320.52 449.74 319.65 449.851 318.794C449.962 317.938 450.257 317.117 450.715 316.389C451.174 315.661 451.785 315.043 452.504 314.58L447.721 294.161L457.844 297.903L460.834 316.719C461.524 317.995 461.727 319.481 461.405 320.898C461.084 322.314 460.26 323.562 459.089 324.405C457.919 325.248 456.484 325.628 455.056 325.471C453.628 325.315 452.306 324.634 451.341 323.558V323.558Z" fill="#9E616A"/>
<path d="M426.997 237.992L431.06 248.562C431.06 248.562 429.319 259.132 432.22 261.481C435.122 263.83 433.962 263.83 433.962 265.591C434.062 266.855 434.423 268.083 435.023 269.196C435.623 270.309 436.448 271.282 437.444 272.051C439.765 273.813 450.212 309.634 450.212 309.634H460.659C460.321 306.904 460.321 304.142 460.659 301.413C461.239 297.302 458.918 286.732 457.757 284.97C456.596 283.208 457.757 280.86 457.757 277.336C457.757 273.813 455.435 272.051 455.435 266.179C455.435 260.306 448.471 214.502 449.051 209.217C449.632 203.932 443.248 199.234 443.248 199.234H437.444L426.997 237.992Z" fill="#E4E4E4"/>
<path d="M453.714 461.323H445.993L442.32 431.191L453.715 431.192L453.714 461.323Z" fill="#9E616A"/>
<path d="M455.683 468.896L430.788 468.895V468.577C430.788 465.976 431.809 463.483 433.626 461.644C435.443 459.806 437.908 458.773 440.478 458.772H440.478L445.026 455.282L453.51 458.773L455.684 458.773L455.683 468.896Z" fill="#2F2E41"/>
<path d="M383.083 461.1L375.833 458.416L382.614 428.841L393.316 432.803L383.083 461.1Z" fill="#9E616A"/>
<path d="M382.362 468.896L358.982 460.242L359.09 459.942C359.973 457.5 361.779 455.513 364.109 454.418C366.44 453.323 369.106 453.21 371.519 454.103L371.52 454.103L376.976 452.406L383.758 458.634L385.799 459.389L382.362 468.896Z" fill="#2F2E41"/>
<path d="M436.703 320.422C436.703 320.422 431.48 346.26 440.186 343.911C448.891 341.562 445.409 319.247 445.409 319.247L436.703 320.422Z" fill="#A0616A"/>
<path d="M398.399 298.988C398.399 298.988 391.434 308.383 391.434 313.668C391.434 318.953 389.113 365.932 389.113 365.932C389.113 365.932 371.491 435.889 374.974 439.412C378.456 442.936 390.644 446.459 392.385 444.697C394.126 442.936 409.426 370.63 409.426 370.63L423.935 331.285L437.284 387.66L438.445 447.557C438.445 447.557 452.954 451.081 455.856 448.732C458.758 446.383 459.338 389.421 455.856 369.455C452.374 349.489 456.436 303.685 456.436 303.685L398.399 298.988Z" fill="#2F2E41"/>
<path d="M421.674 173.613C431.29 173.613 439.085 165.726 439.085 155.996C439.085 146.267 431.29 138.38 421.674 138.38C412.058 138.38 404.263 146.267 404.263 155.996C404.263 165.726 412.058 173.613 421.674 173.613Z" fill="#9E616A"/>
<path d="M399.56 199.158C399.56 199.158 404.573 191.6 414.439 181.617C419.663 179.856 428.713 180.882 431.85 181.617C446.36 200.996 447.273 199.708 451.05 210.536C452.029 213.343 452.519 216.041 452.084 218.243C450.342 227.052 455.856 298.4 456.436 300.749C457.017 303.098 461.079 306.034 457.017 306.034C452.954 306.034 391.434 303.685 392.595 301.924C393.756 300.162 399.56 199.158 399.56 199.158Z" fill="#E4E4E4"/>
<path opacity="0.1" d="M396.902 301.149L414.36 262.285L405.631 303.617L396.902 301.149Z" fill="black"/>
<path d="M416.406 172.317C418.037 171.09 419.538 169.696 420.886 168.158C422.239 166.606 423.086 164.669 423.312 162.612C423.411 161.586 423.252 160.552 422.849 159.605C422.447 158.658 421.814 157.83 421.01 157.197C419.352 156.012 416.823 156.081 415.447 157.591C416.112 155.416 416.719 152.851 415.372 151.027C414.146 149.367 411.86 149.085 409.884 148.537C406.075 147.464 402.798 144.994 400.691 141.608L404.045 142.31L403.671 139.891L406.451 140.869L406.475 137.499L409.344 139.123C412.856 135.865 417.485 134.12 422.248 134.259C424.65 134.299 427.003 134.953 429.089 136.159C431.18 137.382 432.763 139.329 433.547 141.64C435.024 140.089 437.657 140.209 439.416 141.421C441.175 142.633 442.208 144.661 442.918 146.691C444.323 150.584 444.65 154.792 443.864 158.86C443.054 162.937 440.883 166.609 437.714 169.258C434.804 171.505 431.34 172.9 427.699 173.289C424.074 173.669 420.413 173.511 416.832 172.819" fill="#2F2E41"/>
<path d="M391.467 323.482C392.044 322.846 392.477 322.09 392.734 321.267C392.991 320.444 393.067 319.574 392.956 318.718C392.845 317.862 392.55 317.041 392.092 316.313C391.633 315.585 391.023 314.967 390.303 314.504L395.086 294.085L384.963 297.827L381.973 316.643C381.283 317.918 381.08 319.405 381.402 320.822C381.724 322.238 382.548 323.486 383.718 324.329C384.888 325.172 386.323 325.551 387.751 325.395C389.18 325.239 390.501 324.558 391.467 323.482V323.482Z" fill="#9E616A"/>
<path d="M405.363 199.158H399.56C399.56 199.158 393.175 203.856 393.756 209.141C394.336 214.426 387.372 260.23 387.372 266.103C387.372 271.975 385.05 273.737 385.05 277.26C385.05 280.783 386.211 283.132 385.05 284.894C383.889 286.656 381.568 297.226 382.148 301.336C382.486 304.066 382.486 306.828 382.148 309.558H392.595C392.595 309.558 403.042 273.737 405.363 271.975C406.359 271.206 407.184 270.233 407.784 269.12C408.384 268.007 408.746 266.779 408.846 265.515C408.846 263.754 407.685 263.754 410.587 261.405C413.488 259.056 411.747 248.486 411.747 248.486L415.81 237.915L405.363 199.158Z" fill="#E4E4E4"/>
<path d="M569.542 470.534H251.178C251.071 470.534 250.965 470.513 250.867 470.472C250.768 470.431 250.678 470.371 250.603 470.294C250.527 470.218 250.467 470.128 250.426 470.028C250.385 469.928 250.364 469.821 250.364 469.713C250.364 469.605 250.385 469.498 250.426 469.399C250.467 469.299 250.527 469.208 250.603 469.132C250.678 469.056 250.768 468.995 250.867 468.954C250.965 468.913 251.071 468.892 251.178 468.892H569.542C569.648 468.892 569.754 468.913 569.853 468.954C569.952 468.995 570.041 469.056 570.117 469.132C570.192 469.208 570.252 469.299 570.293 469.399C570.334 469.498 570.355 469.605 570.355 469.713C570.355 469.821 570.334 469.928 570.293 470.028C570.252 470.128 570.192 470.218 570.117 470.294C570.041 470.371 569.952 470.431 569.853 470.472C569.754 470.513 569.648 470.534 569.542 470.534V470.534Z" fill="#CACACA"/>
</g>
<defs>
<clipPath id="clip0_509_1600">
<rect width="606" height="492" fill="white"/>
</clipPath>
</defs>
</svg>
