<svg width="156" height="27" viewBox="0 0 156 27" fill="none" xmlns="http://www.w3.org/2000/svg">
<path d="M0.064209 14.44C0.064209 12.36 0.514209 10.51 1.41421 8.89001C2.31421 7.25001 3.56421 5.98001 5.16421 5.08001C6.78421 4.16001 8.61421 3.70001 10.6542 3.70001C13.1542 3.70001 15.2942 4.36001 17.0742 5.68001C18.8542 7.00001 20.0442 8.80001 20.6442 11.08H15.0042C14.5842 10.2 13.9842 9.53001 13.2042 9.07001C12.4442 8.61001 11.5742 8.38001 10.5942 8.38001C9.01421 8.38001 7.73421 8.93001 6.75421 10.03C5.77421 11.13 5.28421 12.6 5.28421 14.44C5.28421 16.28 5.77421 17.75 6.75421 18.85C7.73421 19.95 9.01421 20.5 10.5942 20.5C11.5742 20.5 12.4442 20.27 13.2042 19.81C13.9842 19.35 14.5842 18.68 15.0042 17.8H20.6442C20.0442 20.08 18.8542 21.88 17.0742 23.2C15.2942 24.5 13.1542 25.15 10.6542 25.15C8.61421 25.15 6.78421 24.7 5.16421 23.8C3.56421 22.88 2.31421 21.61 1.41421 19.99C0.514209 18.37 0.064209 16.52 0.064209 14.44Z" fill="#5E47D2"/>
<path d="M43.673 3.94L36.203 25H29.783L22.313 3.94H27.773L32.993 19.84L38.243 3.94H43.673Z" fill="#5E47D2"/>
<path d="M58.7224 14.2C59.9424 14.46 60.9224 15.07 61.6624 16.03C62.4024 16.97 62.7724 18.05 62.7724 19.27C62.7724 21.03 62.1524 22.43 60.9124 23.47C59.6924 24.49 57.9824 25 55.7824 25H45.9724V3.94H55.4524C57.5924 3.94 59.2624 4.43 60.4624 5.41C61.6824 6.39 62.2924 7.72 62.2924 9.4C62.2924 10.64 61.9624 11.67 61.3024 12.49C60.6624 13.31 59.8024 13.88 58.7224 14.2ZM51.1024 12.46H54.4624C55.3024 12.46 55.9424 12.28 56.3824 11.92C56.8424 11.54 57.0724 10.99 57.0724 10.27C57.0724 9.55 56.8424 9 56.3824 8.62C55.9424 8.24 55.3024 8.05 54.4624 8.05H51.1024V12.46ZM54.8824 20.86C55.7424 20.86 56.4024 20.67 56.8624 20.29C57.3424 19.89 57.5824 19.32 57.5824 18.58C57.5824 17.84 57.3324 17.26 56.8324 16.84C56.3524 16.42 55.6824 16.21 54.8224 16.21H51.1024V20.86H54.8824Z" fill="#424242"/>
<path d="M82.7825 8.26001V25H77.6525V22.72C77.1325 23.46 76.4225 24.06 75.5225 24.52C74.6425 24.96 73.6625 25.18 72.5825 25.18C71.3025 25.18 70.1725 24.9 69.1925 24.34C68.2125 23.76 67.4525 22.93 66.9125 21.85C66.3725 20.77 66.1025 19.5 66.1025 18.04V8.26001H71.2025V17.35C71.2025 18.47 71.4925 19.34 72.0725 19.96C72.6525 20.58 73.4325 20.89 74.4125 20.89C75.4125 20.89 76.2025 20.58 76.7825 19.96C77.3625 19.34 77.6525 18.47 77.6525 17.35V8.26001H82.7825Z" fill="#424242"/>
<path d="M89.5161 6.51997C88.6161 6.51997 87.8761 6.25997 87.2961 5.73997C86.7361 5.19997 86.4561 4.53997 86.4561 3.75997C86.4561 2.95997 86.7361 2.29997 87.2961 1.77997C87.8761 1.23997 88.6161 0.969971 89.5161 0.969971C90.3961 0.969971 91.1161 1.23997 91.6761 1.77997C92.2561 2.29997 92.5461 2.95997 92.5461 3.75997C92.5461 4.53997 92.2561 5.19997 91.6761 5.73997C91.1161 6.25997 90.3961 6.51997 89.5161 6.51997ZM92.0661 8.25997V25H86.9361V8.25997H92.0661Z" fill="#424242"/>
<path d="M101.066 2.79999V25H95.9363V2.79999H101.066Z" fill="#424242"/>
<path d="M104.159 16.6C104.159 14.88 104.479 13.37 105.119 12.07C105.779 10.77 106.669 9.76999 107.789 9.06999C108.909 8.36999 110.159 8.01999 111.539 8.01999C112.639 8.01999 113.639 8.24999 114.539 8.70999C115.459 9.16999 116.179 9.78999 116.699 10.57V2.79999H121.829V25H116.699V22.6C116.219 23.4 115.529 24.04 114.629 24.52C113.749 25 112.719 25.24 111.539 25.24C110.159 25.24 108.909 24.89 107.789 24.19C106.669 23.47 105.779 22.46 105.119 21.16C104.479 19.84 104.159 18.32 104.159 16.6ZM116.699 16.63C116.699 15.35 116.339 14.34 115.619 13.6C114.919 12.86 114.059 12.49 113.039 12.49C112.019 12.49 111.149 12.86 110.429 13.6C109.729 14.32 109.379 15.32 109.379 16.6C109.379 17.88 109.729 18.9 110.429 19.66C111.149 20.4 112.019 20.77 113.039 20.77C114.059 20.77 114.919 20.4 115.619 19.66C116.339 18.92 116.699 17.91 116.699 16.63Z" fill="#424242"/>
<path d="M141.897 16.36C141.897 16.84 141.867 17.34 141.807 17.86H130.197C130.277 18.9 130.607 19.7 131.187 20.26C131.787 20.8 132.517 21.07 133.377 21.07C134.657 21.07 135.547 20.53 136.047 19.45H141.507C141.227 20.55 140.717 21.54 139.977 22.42C139.257 23.3 138.347 23.99 137.247 24.49C136.147 24.99 134.917 25.24 133.557 25.24C131.917 25.24 130.457 24.89 129.177 24.19C127.897 23.49 126.897 22.49 126.177 21.19C125.457 19.89 125.097 18.37 125.097 16.63C125.097 14.89 125.447 13.37 126.147 12.07C126.867 10.77 127.867 9.77002 129.147 9.07002C130.427 8.37002 131.897 8.02002 133.557 8.02002C135.177 8.02002 136.617 8.36002 137.877 9.04002C139.137 9.72002 140.117 10.69 140.817 11.95C141.537 13.21 141.897 14.68 141.897 16.36ZM136.647 15.01C136.647 14.13 136.347 13.43 135.747 12.91C135.147 12.39 134.397 12.13 133.497 12.13C132.637 12.13 131.907 12.38 131.307 12.88C130.727 13.38 130.367 14.09 130.227 15.01H136.647Z" fill="#424242"/>
<path d="M150.074 11.05C150.674 10.13 151.424 9.40996 152.324 8.88996C153.224 8.34996 154.224 8.07996 155.324 8.07996V13.51H153.914C152.634 13.51 151.674 13.79 151.034 14.35C150.394 14.89 150.074 15.85 150.074 17.23V25H144.944V8.25996H150.074V11.05Z" fill="#424242"/>
</svg>
